<svg id="download" xmlns="http://www.w3.org/2000/svg" width="116" height="116" viewBox="0 0 116 116">
  <defs>
    <style>
      .cls-1 {
        fill: #fff;
      }
    </style>
  </defs>
  <rect id="矩形_2" data-name="矩形 2" class="cls-1" width="116" height="116"/>
  <g id="组_3" data-name="组 3" transform="translate(7.502 7.502)">
    <path id="路径_1" data-name="路径 1" d="M123.127,32.542v-3.06h-6.121v3.06h6.121Z" transform="translate(-92.522 -29.482)"/>
    <rect id="矩形_3" data-name="矩形 3" width="3.06" height="3.06" transform="translate(39.786)"/>
    <rect id="矩形_4" data-name="矩形 4" width="3.06" height="3.06" transform="translate(61.21)"/>
    <path id="路径_2" data-name="路径 2" d="M332.3,29.482H313.935V50.905h21.423V29.482Zm0,6.121V47.845H317v-15.3h15.3Z" transform="translate(-234.363 -29.482)"/>
    <rect id="矩形_5" data-name="矩形 5" width="3.06" height="3.06" transform="translate(42.847 3.06)"/>
    <path id="路径_3" data-name="路径 3" d="M196.65,35.6h3.06v-3.06h3.06v-3.06h-9.181v3.06h3.06Z" transform="translate(-147.682 -29.482)"/>
    <path id="路径_4" data-name="路径 4" d="M123.127,51.363h-3.06v3.06h-3.06v3.06h6.121V51.363Z" transform="translate(-92.522 -45.242)"/>
    <path id="路径_5" data-name="路径 5" d="M338.876,51.363h-3.06v9.181H345V51.363h-6.121Z" transform="translate(-250.122 -45.242)"/>
    <path id="路径_6" data-name="路径 6" d="M152.888,46.543h3.061V49.6h6.121v-3.06h-3.06v-3.06h-3.06v-3.06h-3.061v3.06h-3.06V49.6h3.06Z" transform="translate(-116.162 -37.362)"/>
    <path id="路径_7" data-name="路径 7" d="M199.71,41.724h-6.121v3.06h6.121v3.06h3.06v-3.06h3.06v-3.06h3.06v3.06h6.121v6.121h-3.06v9.181h3.06v3.06h-3.06v-3.06h-6.121v3.06h3.06v3.06h6.121v6.121h3.06v-3.06h3.06v-3.06h-3.06V57.026h-3.06v-3.06h3.06v-15.3h6.121V35.6h-3.061v-3.06h3.061v-3.06h-9.181v3.06h3.06V35.6h-3.06v6.121h-3.06V35.6h-3.06v3.06h-3.06V35.6H199.71v6.121Z" transform="translate(-147.682 -29.482)"/>
    <path id="路径_8" data-name="路径 8" d="M57.484,60.544h3.06V51.363H51.363v9.181h6.121Z" transform="translate(-45.242 -45.242)"/>
    <rect id="矩形_6" data-name="矩形 6" width="3.06" height="3.06" transform="translate(30.605 12.242)"/>
    <rect id="矩形_7" data-name="矩形 7" width="3.06" height="3.06" transform="translate(27.544 15.302)"/>
    <path id="路径_9" data-name="路径 9" d="M182.649,87.245v3.06h3.06V84.184h-3.06Z" transform="translate(-139.802 -68.882)"/>
    <rect id="矩形_8" data-name="矩形 8" width="3.06" height="3.06" transform="translate(58.149 15.302)"/>
    <path id="路径_10" data-name="路径 10" d="M35.6,50.905h15.3V29.482H29.482V50.905H35.6Zm-3.061-6.121V32.542h15.3v15.3h-15.3Z" transform="translate(-29.482 -29.482)"/>
    <rect id="矩形_9" data-name="矩形 9" width="3.06" height="3.06" transform="translate(24.484 18.363)"/>
    <rect id="矩形_10" data-name="矩形 10" width="3.06" height="3.06" transform="translate(30.605 18.363)"/>
    <path id="路径_11" data-name="路径 11" d="M152.888,82.425h3.061V73.244h-3.061V76.3h-3.06v3.06h3.06Z" transform="translate(-116.162 -61.002)"/>
    <rect id="矩形_11" data-name="矩形 11" width="3.06" height="3.06" transform="translate(48.968 18.363)"/>
    <rect id="矩形_12" data-name="矩形 12" width="3.06" height="3.06" transform="translate(55.089 18.363)"/>
    <rect id="矩形_13" data-name="矩形 13" width="3.06" height="3.06" transform="translate(61.21 18.363)"/>
    <rect id="矩形_14" data-name="矩形 14" width="3.06" height="3.06" transform="translate(45.907 21.423)"/>
    <rect id="矩形_15" data-name="矩形 15" width="3.06" height="3.06" transform="translate(58.149 21.423)"/>
    <path id="路径_12" data-name="路径 12" d="M51.363,120.066v3.06h3.06v-6.121h-3.06Z" transform="translate(-45.242 -92.522)"/>
    <path id="路径_13" data-name="路径 13" d="M79.365,117.006H73.244v3.06h9.181v-3.06Z" transform="translate(-61.002 -92.522)"/>
    <path id="路径_14" data-name="路径 14" d="M123.127,112.186v-6.121h-3.06v3.06h-3.06v3.06h6.121Z" transform="translate(-92.522 -84.642)"/>
    <path id="路径_15" data-name="路径 15" d="M171.251,112.186h3.061v-3.06h-3.061v-3.06h-3.06v3.06h-3.06v3.06h-3.061v-3.06h-9.181v-3.06h-3.06v6.121h6.121v3.06H168.19v-3.06Z" transform="translate(-116.162 -84.642)"/>
    <path id="路径_16" data-name="路径 16" d="M348.057,120.066v3.06h-6.121v-6.121h-3.06v6.121h-3.06v3.06h12.242v3.06H345v3.06h-3.06v3.06H345v3.06h3.061v3.06h3.06V117.006h-3.06Z" transform="translate(-250.122 -92.522)"/>
    <path id="路径_17" data-name="路径 17" d="M32.542,127.946h-3.06v6.121h3.06v-6.121Z" transform="translate(-29.482 -100.402)"/>
    <rect id="矩形_16" data-name="矩形 16" width="3.06" height="3.06" transform="translate(21.423 27.544)"/>
    <rect id="矩形_17" data-name="矩形 17" width="3.06" height="3.06" transform="translate(79.572 27.544)"/>
    <rect id="矩形_18" data-name="矩形 18" width="3.06" height="3.06" transform="translate(24.484 30.605)"/>
    <rect id="矩形_19" data-name="矩形 19" width="3.06" height="3.06" transform="translate(30.605 30.605)"/>
    <path id="路径_18" data-name="路径 18" d="M152.888,141.947h-3.06v3.061h6.121v6.121h3.06v-9.181h-3.06v-3.06h-3.061Z" transform="translate(-116.162 -108.282)"/>
    <path id="路径_19" data-name="路径 19" d="M46.543,152.888v-3.06H40.422v3.06h6.121Z" transform="translate(-37.362 -116.162)"/>
    <rect id="矩形_20" data-name="矩形 20" width="3.06" height="3.06" transform="translate(27.544 36.726)"/>
    <path id="路径_20" data-name="路径 20" d="M35.6,166.889h3.06v-3.06H32.542v-3.06h-3.06v9.181h3.06v-3.06Z" transform="translate(-29.482 -124.042)"/>
    <rect id="矩形_21" data-name="矩形 21" width="3.06" height="3.06" transform="translate(33.665 39.786)"/>
    <rect id="矩形_22" data-name="矩形 22" width="3.06" height="3.06" transform="translate(73.451 39.786)"/>
    <path id="路径_21" data-name="路径 21" d="M74.545,154.189v-3.06h-3.06v-3.06h6.121v-6.121h-3.06v3.061h-3.06v-3.061h3.06v-3.06H65.364v9.181h3.06v3.06h-3.06v3.06H62.3v3.06h9.181v-3.06Z" transform="translate(-53.122 -108.282)"/>
    <path id="路径_22" data-name="路径 22" d="M123.127,177.829v3.06h3.061v3.06h6.121v-3.06h6.121v-3.06H126.187v-3.06h-6.121v-3.06h-3.06v6.121h6.121Z" transform="translate(-92.522 -131.922)"/>
    <path id="路径_23" data-name="路径 23" d="M196.65,151.129v-3.06h3.06v-3.06h3.06v-6.121h-3.06v3.06h-6.121v12.242h3.06Z" transform="translate(-147.682 -108.282)"/>
    <path id="路径_24" data-name="路径 24" d="M221.591,166.889v-6.121h-3.06v3.06h-3.06v3.06h3.06v3.06h6.121v-3.06Z" transform="translate(-163.442 -124.042)"/>
    <path id="路径_25" data-name="路径 25" d="M296.416,119.609v-3.06h3.06v-3.06h-6.121v-3.06h-3.061v-3.06h-3.06v-3.06h3.06v-3.06h-3.06V95.125h-3.06v6.121h-3.06v3.06h3.06v9.181h3.06v3.06h3.06v3.06h-3.06v3.06h6.121v3.06h3.06v-3.06h3.06v3.06h3.06v-6.121h-6.121Z" transform="translate(-210.722 -76.762)"/>
    <path id="路径_26" data-name="路径 26" d="M302.994,204.53v3.06h3.06v3.061h3.06V204.53h-6.121Z" transform="translate(-226.482 -155.562)"/>
    <rect id="矩形_23" data-name="矩形 23" width="3.06" height="3.06" transform="translate(27.544 52.028)"/>
    <path id="路径_27" data-name="路径 27" d="M182.649,207.59v3.061h6.121V207.59h6.121v-3.06h-9.181v3.06Z" transform="translate(-139.802 -155.562)"/>
    <path id="路径_28" data-name="路径 28" d="M346.756,207.59v3.061h3.06v3.06h3.061v-3.06h3.06v6.121h-3.06v9.181h3.06v3.06h-3.06v3.06h3.06v3.06h-3.06v-3.06h-3.061v6.121h6.121v3.06H359V207.59h-6.121v-3.06h-3.061v3.06Z" transform="translate(-258.002 -155.562)"/>
    <path id="路径_29" data-name="路径 29" d="M38.663,205.831V199.71H35.6v3.06h-3.06v-3.06H35.6v-6.121h-3.06v3.06h-3.06v9.181h3.06v3.06H35.6v-3.06Z" transform="translate(-29.482 -147.682)"/>
    <path id="路径_30" data-name="路径 30" d="M101.246,205.831V193.589h-3.06v3.06h-3.06v3.061h3.06v3.06h-3.06v3.06h6.121Z" transform="translate(-76.762 -147.682)"/>
    <path id="路径_31" data-name="路径 31" d="M302.994,229.471v9.181h3.06v-6.121h3.06v-3.06h-3.06v-3.06h-3.06Z" transform="translate(-226.482 -171.322)"/>
    <path id="路径_32" data-name="路径 32" d="M335.816,229.471v3.06h3.06v-6.121h-3.06Z" transform="translate(-250.122 -171.322)"/>
    <path id="路径_33" data-name="路径 33" d="M68.424,229.471v-3.06h-3.06v3.06H62.3v3.06h9.181v-3.06Z" transform="translate(-53.122 -171.322)"/>
    <path id="路径_34" data-name="路径 34" d="M196.65,237.351h-3.06v3.061h6.121v-3.061Z" transform="translate(-147.682 -179.202)"/>
    <rect id="矩形_24" data-name="矩形 24" width="3.06" height="3.06" transform="translate(0 61.209)"/>
    <rect id="矩形_25" data-name="矩形 25" width="3.06" height="3.06" transform="translate(6.121 61.209)"/>
    <rect id="矩形_26" data-name="矩形 26" width="3.06" height="3.06" transform="translate(18.363 61.209)"/>
    <path id="路径_35" data-name="路径 35" d="M118.307,235.592v-3.06h3.06v-6.121h-3.06v3.06h-9.181v6.121h-3.06v3.06h9.181v-3.06Z" transform="translate(-84.642 -171.322)"/>
    <rect id="矩形_27" data-name="矩形 27" width="3.06" height="3.06" transform="translate(52.028 61.209)"/>
    <rect id="矩形_28" data-name="矩形 28" width="3.06" height="3.06" transform="translate(88.754 61.209)"/>
    <path id="路径_36" data-name="路径 36" d="M52.664,259.232H49.6v3.06h-3.06v3.06H40.422v3.06h6.121v3.06H49.6v-6.121h3.06v-3.06h3.06v-3.06Z" transform="translate(-37.362 -194.962)"/>
    <rect id="矩形_29" data-name="矩形 29" width="3.06" height="3.06" transform="translate(0 67.33)"/>
    <rect id="矩形_30" data-name="矩形 30" width="3.06" height="3.06" transform="translate(18.363 67.33)"/>
    <rect id="矩形_31" data-name="矩形 31" width="3.06" height="3.06" transform="translate(48.968 67.33)"/>
    <path id="路径_37" data-name="路径 37" d="M317,265.353h3.06v-6.121H317v3.06h-3.06v3.06Z" transform="translate(-234.362 -194.962)"/>
    <rect id="矩形_32" data-name="矩形 32" width="3.06" height="3.06" transform="translate(88.754 67.33)"/>
    <rect id="矩形_33" data-name="矩形 33" width="3.06" height="3.06" transform="translate(70.391 70.391)"/>
    <rect id="矩形_34" data-name="矩形 34" width="3.06" height="3.06" transform="translate(0 73.451)"/>
    <path id="路径_38" data-name="路径 38" d="M299.476,284.174h-9.181v-3.061h-3.061v3.061h-3.06v3.06h-3.061v9.182h3.061v3.06h12.242v3.061h-3.061v6.121h-3.06v3.06h9.181v-3.06h-3.06V305.6h3.06V287.234h3.061v-3.06Zm-3.06,6.121v6.121h-9.182v-9.182h9.182Z" transform="translate(-210.722 -210.722)"/>
    <path id="路径_39" data-name="路径 39" d="M125.73,263.594v-6.121h-3.06v-9.181h-9.181v3.06h6.121v3.06h-6.121v-3.06h-3.06v3.06h-3.06v3.06h-6.121v3.06H95.125v3.06h6.121v3.061h6.121v-3.061h-3.06v-3.06h6.121v6.121h-3.06v6.121h6.121v-15.3h3.06v3.06h6.121v3.06h-3.06v3.061h-3.06v3.06h3.06v3.06h6.121v-6.121h3.06v6.121h3.06v-9.181H125.73Z" transform="translate(-76.762 -187.082)"/>
    <path id="路径_40" data-name="路径 40" d="M44.784,313.935h-15.3v21.423H50.905V313.935H44.784Zm3.061,6.121V332.3h-15.3V317h15.3Z" transform="translate(-29.482 -234.363)"/>
    <rect id="矩形_35" data-name="矩形 35" width="3.06" height="3.06" transform="translate(64.27 79.572)"/>
    <rect id="矩形_36" data-name="矩形 36" width="3.06" height="3.06" transform="translate(79.572 79.572)"/>
    <path id="路径_41" data-name="路径 41" d="M54.423,335.816h-3.06V345h9.181v-9.181H54.423Z" transform="translate(-45.242 -250.122)"/>
    <path id="路径_42" data-name="路径 42" d="M120.066,327.936v-3.06h-3.06V331h3.06Z" transform="translate(-92.522 -242.242)"/>
    <rect id="矩形_37" data-name="矩形 37" width="3.06" height="3.06" transform="translate(36.726 85.693)"/>
    <path id="路径_43" data-name="路径 43" d="M141.49,338.876h-3.06v3.06h-3.06v-3.06h-3.06v3.06h-3.06v-3.06h-3.06v3.06h-9.181V345h9.181v3.06h3.06V345h3.06v3.06h3.06V345h3.06v3.06h3.06v-6.121h6.121v-3.06h-3.06v-3.06h-3.06Z" transform="translate(-92.522 -250.122)"/>
    <rect id="矩形_38" data-name="矩形 38" width="3.06" height="3.06" transform="translate(94.875 85.693)"/>
    <rect id="矩形_39" data-name="矩形 39" width="3.06" height="3.06" transform="translate(91.814 88.754)"/>
    <path id="路径_44" data-name="路径 44" d="M290.295,349.816h-6.121v-3.06h-3.06v6.121h3.06v3.06h-3.06V359h6.121v-3.06h3.06v-6.121Z" transform="translate(-210.722 -258.002)"/>
    <rect id="矩形_40" data-name="矩形 40" width="3.06" height="3.06" transform="translate(97.935 91.814)"/>
    <path id="路径_45" data-name="路径 45" d="M238.653,234.677v-3.06h-3.06v-9.181h-3.06v-3.06h3.06v-3.06h3.06v-6.121h3.06v-3.06h3.061v-3.061h-6.121v-3.06h3.06v-3.06h-6.121v3.06h-3.06v-6.121h6.121v-3.06h3.06v-3.06h6.121v-3.06h-9.181v-3.06h-3.06v3.06h-3.06v3.06h3.06v3.06h-3.06v-3.06h-3.061v9.181h-3.06v3.06h3.06v3.06h-3.06v12.242h3.06v-6.121h6.121v3.06h-3.06v3.06h-3.061v12.242h3.061v3.06h-3.061v3.06h3.061v3.06h3.06v3.06h3.06v-3.06h3.06v-3.06Z" transform="translate(-171.322 -139.802)"/>
    <path id="路径_46" data-name="路径 46" d="M357.7,368.637v6.121h9.181V371.7h-3.06v-3.06H357.7Z" transform="translate(-265.882 -273.762)"/>
    <rect id="矩形_41" data-name="矩形 41" width="3.06" height="3.06" transform="translate(30.605 97.935)"/>
    <rect id="矩形_42" data-name="矩形 42" width="3.06" height="3.06" transform="translate(36.726 97.935)"/>
    <rect id="矩形_43" data-name="矩形 43" width="3.06" height="3.06" transform="translate(58.149 97.935)"/>
  </g>
</svg>
