<svg xmlns="http://www.w3.org/2000/svg" width="18" height="18" viewBox="0 0 18 18">
  <defs>
    <style>
      .cls-1, .cls-2 {
        fill: #0db767;
      }

      .cls-1 {
        opacity: 0.55;
      }

      .cls-2 {
        opacity: 0.995;
      }
    </style>
  </defs>
  <g id="icon_rise2" transform="translate(-571 -627)">
    <path id="icon_arrow" class="cls-1" d="M12560.024,2816.613a2.195,2.195,0,0,1-3.664-.046l-6.45-8.582c-1-1.326-.46-2.4,1.2-2.4l14.63-.008c1.657,0,2.167,1.052,1.141,2.354Z" transform="translate(13138.41 3444.576) rotate(180)"/>
    <path id="icon_arrow-2" data-name="icon_arrow" class="cls-2" d="M12560.024,2816.613a2.195,2.195,0,0,1-3.664-.046l-6.45-8.582c-1-1.326-.46-2.4,1.2-2.4l14.63-.008c1.657,0,2.167,1.052,1.141,2.354Z" transform="translate(13138.41 3450.576) rotate(180)"/>
  </g>
</svg>
