<svg xmlns="http://www.w3.org/2000/svg" width="30" height="30.001" viewBox="0 0 30 30.001">
  <defs>
    <style>
      .cls-1 {
        fill: #fff;
      }
    </style>
  </defs>
  <path id="icon_switch" class="cls-1" d="M34.952,29.644a.983.983,0,0,1,.584.159,1.185,1.185,0,0,1,.5.728,1.291,1.291,0,0,1-.107.9l-3.214,4.046a1.016,1.016,0,0,1-1.465.436,1.267,1.267,0,0,1-.392-1.628l1.821-2.293H20.1a1.174,1.174,0,0,1,0-2.349H34.952Zm-14.9-4.287a.982.982,0,0,1-.584-.159,1.181,1.181,0,0,1-.5-.728,1.291,1.291,0,0,1,.107-.9l3.215-4.046a1.015,1.015,0,0,1,1.463-.436,1.267,1.267,0,0,1,.392,1.627L22.321,23.01H34.9a1.174,1.174,0,1,1,0,2.349H20.048ZM12.5,14.632A2.139,2.139,0,0,1,14.633,12.5H40.368A2.139,2.139,0,0,1,42.5,14.633V40.368A2.139,2.139,0,0,1,40.367,42.5H14.632A2.14,2.14,0,0,1,12.5,40.367Zm2.143,1.082V39.283a1.071,1.071,0,0,0,1.069,1.074H39.286a1.071,1.071,0,0,0,1.071-1.071V15.714a1.071,1.071,0,0,0-1.071-1.071H15.714A1.071,1.071,0,0,0,14.643,15.714Z" transform="translate(-12.5 -12.5)"/>
</svg>
