<svg xmlns="http://www.w3.org/2000/svg" xmlns:xlink="http://www.w3.org/1999/xlink" width="80" height="80" viewBox="0 0 80 80">
  <defs>
    <style>
      .cls-1 {
        fill: url(#linear-gradient);
      }

      .cls-2 {
        fill: #fff;
      }
    </style>
    <linearGradient id="linear-gradient" x1="0.227" y1="0.093" x2="0.785" y2="0.932" gradientUnits="objectBoundingBox">
      <stop offset="0" stop-color="#ff768a"/>
      <stop offset="1" stop-color="#f4398a"/>
    </linearGradient>
  </defs>
  <g id="icon_abc" transform="translate(-420 -338)">
    <g id="组_71" data-name="组 71" transform="translate(420 338)">
      <path id="路径_235" data-name="路径 235" class="cls-1" d="M40,0A40,40,0,1,1,0,40,40,40,0,0,1,40,0Z" transform="translate(0 0)"/>
      <g id="组_55" data-name="组 55" transform="translate(13.867 23.467)">
        <path id="联合_3" data-name="联合 3" class="cls-2" d="M39.6,30.83a8.251,8.251,0,0,1-1.893-5.8V7.856a8.251,8.251,0,0,1,1.893-5.8A7.108,7.108,0,0,1,45.1,0,7.1,7.1,0,0,1,50.6,2.055a8.256,8.256,0,0,1,1.892,5.8v2.266l-4.742,1.115v-3.7q0-2.967-2.508-2.968T42.729,7.535V25.394q0,2.927,2.509,2.924t2.508-2.924V21.622l4.742-1.115v4.522a8.255,8.255,0,0,1-1.892,5.8A7.1,7.1,0,0,1,45.1,32.885,7.108,7.108,0,0,1,39.6,30.83Zm-20,1.6V.457h7.571q3.875,0,5.656,1.8T34.61,7.811V9.089a8.744,8.744,0,0,1-.8,4.018,4.66,4.66,0,0,1-2.437,2.239v.092q3.737,1.277,3.741,6.667v2.743a7.651,7.651,0,0,1-1.94,5.64A7.694,7.694,0,0,1,27.5,32.428Zm5.018-4.567H27.5a2.514,2.514,0,0,0,1.96-.706,3.671,3.671,0,0,0,.637-2.447V21.924a4.655,4.655,0,0,0-.749-3.037,3.19,3.19,0,0,0-2.485-.845H24.625Zm0-14.389h1.96a3.016,3.016,0,0,0,2.257-.774,3.662,3.662,0,0,0,.753-2.6V8.312A4.074,4.074,0,0,0,28.981,5.8a2.326,2.326,0,0,0-1.94-.777H24.625ZM12.176,32.428l-.914-6.346-.557-4.054s-.247,4.143-1.979,4.143H5.563l-.91,6.257H0L5.2.457h6.795l5.2,31.971Zm-6.021-10.6h4.517L8.435,6.029H8.344Z"/>
      </g>
    </g>
  </g>
</svg>
