<svg xmlns="http://www.w3.org/2000/svg" width="22" height="22.001" viewBox="0 0 22 22.001">
  <defs>
    <style>
      .cls-1, .cls-2 {
        fill: #0eb768;
      }

      .cls-1 {
        opacity: 0.55;
      }

      .cls-2 {
        opacity: 0.995;
      }
    </style>
  </defs>
  <g id="icon_largerise2" transform="translate(-571.002 -627)">
    <path id="icon_arrow" class="cls-1" d="M12.974,13.489A2.683,2.683,0,0,1,8.5,13.433L.613,2.944C-.606,1.322.05.01,2.077.01L19.958,0c2.026,0,2.649,1.286,1.394,2.877Z" transform="translate(593.001 641.667) rotate(180)"/>
    <path id="icon_arrow-2" data-name="icon_arrow" class="cls-2" d="M12.974,13.489A2.683,2.683,0,0,1,8.5,13.433L.613,2.944C-.606,1.322.05.01,2.077.01L19.958,0c2.026,0,2.649,1.286,1.394,2.877Z" transform="translate(593.001 649) rotate(180)"/>
  </g>
</svg>
