<svg xmlns="http://www.w3.org/2000/svg" xmlns:xlink="http://www.w3.org/1999/xlink" width="80" height="80" viewBox="0 0 80 80">
  <defs>
    <style>
      .cls-1 {
        fill: url(#linear-gradient);
      }

      .cls-2 {
        fill: url(#linear-gradient-2);
      }
    </style>
    <linearGradient id="linear-gradient" x1="0.154" y1="0.145" x2="0.868" y2="0.839" gradientUnits="objectBoundingBox">
      <stop offset="0" stop-color="#54d991"/>
      <stop offset="1" stop-color="#2dd078"/>
    </linearGradient>
    <linearGradient id="linear-gradient-2" x1="0.5" x2="0.5" y2="1" gradientUnits="objectBoundingBox">
      <stop offset="0" stop-color="#fff"/>
      <stop offset="1" stop-color="#fff" stop-opacity="0.502"/>
    </linearGradient>
  </defs>
  <g id="icon_vote" transform="translate(-266.5 -128.837)">
    <circle id="椭圆_11" data-name="椭圆 11" class="cls-1" cx="40" cy="40" r="40" transform="translate(266.5 128.837)"/>
    <path id="路径_972" data-name="路径 972" class="cls-2" d="M314.224,149.04a1.849,1.849,0,0,0-.615-2.234l-4.274-4.273a3.249,3.249,0,0,0-4.567.291l-24.282,24.283a3.249,3.249,0,0,0-.29,4.566l4.273,4.273a1.793,1.793,0,0,0,2.234.614c1.558-.651,3.8-1.058,5.278.422,1.92,1.921,1.174,3.92.465,5.228a2.25,2.25,0,0,0,.57,2.284l4.274,4.274a3.249,3.249,0,0,0,4.566-.29l24.284-24.284a3.249,3.249,0,0,0,.29-4.566l-4.274-4.273a1.962,1.962,0,0,0-2.234-.616c-2.57.965-3.944.913-5.277-.42S313.268,151.7,314.224,149.04Zm3.214,19.9a1.031,1.031,0,0,1-1.458,1.457l-1.457-1.457a1.03,1.03,0,1,1,1.457-1.457Zm-5.387-5.387a1.03,1.03,0,0,1-1.457,1.457l-1.457-1.457a1.03,1.03,0,0,1,1.457-1.457Zm-5.387-5.387a1.03,1.03,0,1,1-1.457,1.457l-1.457-1.457a1.03,1.03,0,0,1,1.457-1.457Zm-5.387-5.387a1.03,1.03,0,1,1-1.457,1.457l-1.457-1.457a1.03,1.03,0,1,1,1.457-1.457Z" transform="translate(3.187 3.187)"/>
  </g>
</svg>
