<svg xmlns="http://www.w3.org/2000/svg" width="30" height="30" viewBox="0 0 30 30">
  <defs>
    <style>
      .cls-1, .cls-2 {
        fill: #ff768a;
      }

      .cls-2 {
        opacity: 0.65;
      }
    </style>
  </defs>
  <g id="Transformation" transform="translate(-24.905 -25.347)">
    <path id="路径_976" data-name="路径 976" class="cls-1" d="M101.088,40.347,90.553,28.933a2.227,2.227,0,0,1,0-2.971,1.835,1.835,0,0,1,2.742,0l11.906,12.9a2.227,2.227,0,0,1,0,2.971L93.3,54.732a1.835,1.835,0,0,1-2.742,0,2.227,2.227,0,0,1,0-2.971Z" transform="translate(-50.866)"/>
    <path id="路径_977" data-name="路径 977" class="cls-2" d="M25.471,51.761a2.227,2.227,0,0,0,0,2.971,1.835,1.835,0,0,0,2.742,0l11.906-12.9a2.227,2.227,0,0,0,0-2.971l-11.906-12.9a1.835,1.835,0,0,0-2.742,0,2.227,2.227,0,0,0,0,2.971L36.006,40.347Z"/>
  </g>
</svg>
