<svg xmlns="http://www.w3.org/2000/svg" xmlns:xlink="http://www.w3.org/1999/xlink" width="80" height="80" viewBox="0 0 80 80">
  <defs>
    <style>
      .cls-1 {
        fill: url(#linear-gradient);
      }

      .cls-2 {
        fill: #fff;
      }
    </style>
    <linearGradient id="linear-gradient" x1="0.5" x2="0.5" y2="1" gradientUnits="objectBoundingBox">
      <stop offset="0" stop-color="#52525c"/>
      <stop offset="1" stop-color="#25252f"/>
    </linearGradient>
  </defs>
  <g id="_icon_iost" data-name=" icon_iost" transform="translate(-50 -607)">
    <circle id="椭圆_4" data-name="椭圆 4" class="cls-1" cx="40" cy="40" r="40" transform="translate(50 607)"/>
    <path id="路径_156" data-name="路径 156" class="cls-2" d="M811.555,639.234,806,635.9l-2.852,1.651-6.006-3.473,2.822-1.648-5.369-3.11-2.839,1.644-6.139-3.55,12.461-7.143,17.71,10.2,5.143-2.981-22.867-13.374-23.2,13.508,11.343,6.551-2.924,1.694,5.479,3.1,2.858-1.67,5.984,3.456-2.9,1.679,5.72,3.283,2.875-1.674,5.282,3.05L798.1,653.161,774.857,639.7v6.422l23.218,13.368,21.536-12.419-10.794-6.241Z" transform="translate(-707.892 10.197)"/>
  </g>
</svg>
