<?xml version="1.0" encoding="utf-8"?>
<!-- Generator: Adobe Illustrator 21.1.0, SVG Export Plug-In . SVG Version: 6.00 Build 0)  -->
<svg version="1.1" id="Layer_1" xmlns="http://www.w3.org/2000/svg" xmlns:xlink="http://www.w3.org/1999/xlink" x="0px" y="0px"
	 viewBox="0 0 1058 156" style="enable-background:new 0 0 1058 156;" xml:space="preserve">
<style type="text/css">
	.st0{fill:#6066C0;}
</style>
<g>
	<path class="st0" d="M92.2,26.4c-3.5-6.6-8.1-11.9-13.6-15.6c-5.6-3.8-12-6.3-19-7.7C52.5,1.7,45.4,1,38.5,1
		C31.8,1,25,1.2,18.3,1.5C12.4,1.9,6.6,2.3,0.7,2.7v152.3h26.4v-51.5l2.6,0.3c1.4,0.1,2.9,0.2,4.5,0.3c1.6,0.1,3.3,0.1,5.1,0.1
		c6.8,0,13.8-0.7,20.8-2.1c6.8-1.4,13.1-4,18.6-7.8c5.5-3.8,10-9,13.5-15.6c3.5-6.6,5.3-15.4,5.3-26.1
		C97.5,41.9,95.7,33.1,92.2,26.4z M67.7,67c-1.7,3.8-4,7-6.9,9.4c-2.9,2.4-6.2,4.1-9.9,5.1c-3.6,1-7.3,1.5-11.1,1.5h-5.4
		c-1.6,0-3.4-0.2-5.2-0.5l-2-0.3v-59l2.1-0.2c2.6-0.3,4.6-0.5,6-0.6c1.4-0.1,2.9-0.1,4.5-0.1c3.7,0,7.5,0.5,11.1,1.5
		c3.7,1,7.1,2.8,10,5.2c2.9,2.5,5.2,5.7,6.9,9.7c1.7,3.9,2.5,8.8,2.5,14.4C70.2,58.5,69.4,63.2,67.7,67z"/>
	<path class="st0" d="M185.1,43.4v89.1l-1.7,0.5c-3.7,1.1-8.4,1.6-13.8,1.6c-4.1,0-7.7-0.5-10.7-1.5c-3.2-1.1-6-2.9-8.2-5.4
		c-2.2-2.5-3.8-5.9-4.8-10c-1-4-1.5-9-1.5-15.1V43.4h-25.6v60c0,11.5,1.4,20.9,4.3,27.7c2.8,6.7,6.6,11.9,11.3,15.4
		c4.7,3.5,10.3,5.8,16.6,6.9c6.5,1.1,13.4,1.7,20.5,1.7c7.9,0,15.6-0.7,22.9-2.2c6.5-1.3,11.9-2.7,16.1-4V43.4H185.1z"/>
	<path class="st0" d="M404.8,74c-2-6.2-5-11.6-9-16.1c-4-4.5-8.8-8-14.5-10.6c-5.6-2.6-12.2-3.9-19.5-3.9c-8.4,0-15.9,1.5-22.1,4.4
		c-6.3,2.9-11.6,7-15.8,12c-4.3,5-7.5,11.1-9.7,17.9c-2.2,6.9-3.3,14.4-3.3,22.3c0,8,1.1,15.6,3.2,22.3c2.1,6.7,5.4,12.5,9.7,17.3
		c4.3,4.8,10.1,8.6,17,11.3c7,2.7,15.6,4.1,25.5,4.1c12.9,0,24.7-1.9,35.1-5.7l-4.7-18.7c-4.1,1.4-8.4,2.6-12.8,3.4
		c-5.1,1-10.3,1.4-15.2,1.4c-9.3,0-16.9-2.1-22.7-6.2c-6-4.3-9.3-11.2-9.9-20.5l-0.2-2.5h71.3c0.2-1.2,0.3-2.6,0.4-4.2
		c0.2-2.6,0.3-5.2,0.3-7.9C407.8,87,406.8,80.2,404.8,74z M336,89.7l0.2-2.6c0.8-7.8,3.2-14,7.2-18.4c4.1-4.5,10.2-6.8,17.9-6.8
		c6.9,0,12.5,2.4,16.4,7.2c3.8,4.6,5.9,10.7,6.2,18.1l0.1,2.5H336z"/>
	<path class="st0" d="M632.7,4.5l-0.2,0h-24.7l-21.7,117.8L554.4,4.6H529l-30.6,114.7L476.7,4.5c-0.1,0-0.2,0-0.3,0h-27.8L484,155.1
		h26.8c0.5,0,0.9-0.1,1.4-0.1l28.4-101.4v0L566.9,155c0.2,0,0.3,0,0.5,0.1h29.3c0,0,0,0,0,0L632.7,4.5z"/>
	<path class="st0" d="M715.4,53.6c-7.8-6.8-19-10.2-33.1-10.2c-5.2,0-11,0.5-17.1,1.5c-5.6,0.9-11.2,2.3-16.8,4.1l4.8,17.8
		c8.2-2.7,16-4,23.4-4c3.7,0,7,0.2,10,0.7c3.2,0.5,6,1.4,8.2,2.8c2.3,1.4,4.2,3.4,5.5,6c1.3,2.5,2,5.7,2,9.5v5.2l-2.5-0.2
		c-4.9-0.4-9.4-0.6-13.4-0.6c-5.5,0-11.1,0.6-16.6,1.8c-5.4,1.2-10.4,3.1-14.7,5.7c-4.3,2.6-7.8,6.1-10.5,10.4
		c-2.7,4.3-4,9.7-4,16.1c0,6.5,1.1,12,3.3,16.4c2.2,4.4,5.3,8,9.3,10.7c4.1,2.8,9,4.9,14.7,6.1c5.9,1.2,12.4,1.9,19.4,1.9
		c8.7,0,16.7-0.7,23.6-2.1c6.2-1.3,11.7-2.6,16.2-3.9V86.2C727,71.3,723.1,60.3,715.4,53.6z M702.3,134.2c0,0-5.4,1-7.5,1.3
		c-2.3,0.4-4.5,0.6-6.8,0.6c-1.9,0-4.1-0.1-6.7-0.3c-2.7-0.2-5.3-0.9-7.7-1.9c-2.6-1.1-4.8-2.8-6.6-5.1c-1.9-2.4-2.8-5.8-2.8-10.1
		c0-6.4,2.4-11.2,7.2-14.2c4.4-2.7,10.4-4.1,17.7-4.1c1.6,0,3.5,0.1,5.6,0.3c2,0.2,3.9,0.5,5.7,0.8l2,0.3V134.2z"/>
	<path class="st0" d="M798.8,135.1c-1.4,0.2-2.8,0.2-4,0.2c-2.8,0-5.2-0.3-7.1-1c-2.2-0.7-4-2.1-5.3-4c-1.3-1.8-2.2-4.2-2.7-7.3
		c-0.5-2.9-0.8-6.5-0.8-11.2V0.9h-25.4v117.6c0,13,3.1,22.5,9.1,28.1c6.1,5.7,14.5,8.5,24.7,8.5c2.6,0,5.5-0.1,8.6-0.4
		c2.4-0.2,4.6-0.6,6.4-1l-1.6-18.8C800.1,134.9,799.4,135,798.8,135.1z"/>
	<path class="st0" d="M863.5,135.1c-1.4,0.2-2.8,0.2-4,0.2c-2.8,0-5.2-0.3-7.1-1c-2.2-0.7-4-2.1-5.3-4c-1.3-1.8-2.2-4.2-2.7-7.3
		c-0.5-2.9-0.8-6.5-0.8-11.2V0.9h-25.4v117.6c0,13,3.1,22.5,9.1,28.1c6.1,5.7,14.5,8.5,24.7,8.5c2.6,0,5.5-0.1,8.6-0.4
		c2.4-0.2,4.6-0.6,6.4-1l-1.6-18.8C864.9,134.9,864.2,135,863.5,135.1z"/>
	<path class="st0" d="M972,74c-2-6.2-5-11.6-9-16.1c-4-4.5-8.8-8-14.5-10.6c-5.6-2.6-12.2-3.9-19.5-3.9c-8.4,0-15.9,1.5-22.1,4.4
		c-6.3,2.9-11.6,7-15.8,12c-4.3,5-7.5,11.1-9.7,17.9c-2.2,6.9-3.3,14.4-3.3,22.3c0,8,1.1,15.6,3.2,22.3c2.1,6.7,5.4,12.5,9.7,17.3
		c4.3,4.8,10.1,8.6,17,11.3c7,2.7,15.6,4.1,25.5,4.1c12.9,0,24.7-1.9,35.1-5.7l-4.7-18.7c-4.1,1.4-8.4,2.6-12.8,3.4
		c-5.1,1-10.3,1.4-15.2,1.4c-9.3,0-16.9-2.1-22.7-6.2c-6-4.3-9.3-11.2-9.9-20.5l-0.2-2.5h71.3c0.2-1.2,0.3-2.6,0.4-4.2
		c0.2-2.6,0.3-5.2,0.3-7.9C975.1,87,974.1,80.2,972,74z M903.2,89.7l0.2-2.6c0.8-7.8,3.2-14,7.2-18.4c4.1-4.5,10.2-6.8,17.9-6.8
		c6.9,0,12.5,2.4,16.4,7.2c3.8,4.6,5.9,10.7,6.2,18.1l0.1,2.5H903.2z"/>
	<path class="st0" d="M1056.2,134.3l-3.5,0.6c-2.2,0.4-4.4,0.6-6.7,0.6c-2.9,0-5.5-0.3-7.7-0.9c-2.4-0.7-4.5-2-6.1-4
		c-1.6-1.8-2.8-4.3-3.6-7.4c-0.8-2.9-1.1-6.7-1.1-11.4v-46h26.2l0-18.5h-26.2V14.8h-25.2v32.5h-14.7v18.5h14.7v52.7
		c0,13,3.2,22.4,9.4,28c6.3,5.7,15.8,8.5,28.1,8.5c6.2,0,12.3-0.7,18.1-1.9L1056.2,134.3z"/>
	<path class="st0" d="M264,67.2V43.4h-25.6v111.7H264v-50.9c0-3.2,0.1-6,0.5-8.6c4.6-28.8,35.2-26.4,35.2-26.4V48.6
		C276.8,46.9,264,67.2,264,67.2z"/>
</g>
</svg>
